<svg width="185" height="200" viewBox="0 0 185 200" fill="none" xmlns="http://www.w3.org/2000/svg">
<path d="M144.439 79.3626C144.38 78.5095 144.41 77.6859 144.263 76.8328C144.057 75.1561 143.674 73.5087 143.115 71.8908C140.88 65.478 135.879 60.1537 129.613 57.5944C128.819 57.3003 128.025 56.9767 127.231 56.7414C126.377 56.5355 125.642 56.3001 124.701 56.153L123.289 55.9471L122.583 55.8589L122.083 55.8295L121.112 55.7706L120.641 55.7412H119.876L112.199 55.7706L96.8434 55.8C76.3695 55.8295 55.9251 55.8295 35.5101 55.653C31.8919 55.6235 26.1851 56.6531 24.3907 57.3591C20.8313 58.8005 25.4497 60.0066 32.3625 60.9185C55.1603 63.9484 82.8117 65.2721 110.963 65.6251L117.317 65.7134L120.288 65.7428L121.877 65.831C122.318 65.8899 122.583 65.9781 122.965 66.0075C126.054 66.6253 129.054 68.4197 131.055 70.9201C133.084 73.4499 134.143 76.5975 134.085 79.8039L133.908 92.5117C133.702 109.456 133.526 126.399 133.32 143.373C133.261 151.845 133.202 160.346 133.143 168.818L133.114 175.172C133.143 177.555 133.026 178.878 132.673 180.114C131.967 182.967 130.202 185.556 127.789 187.262C126.583 188.115 125.26 188.762 123.848 189.174C123.142 189.38 122.406 189.498 121.671 189.615L120.553 189.674C120.141 189.704 119.523 189.674 119.023 189.704L106.257 189.762C97.7553 189.851 89.2245 189.939 80.7232 190.027C72.2806 189.91 63.8675 189.821 55.425 189.704L35.363 189.527L25.332 189.468H24.0671H23.4494H23.3611H23.1258L21.8609 189.409C21.6255 189.409 21.5079 189.38 21.4196 189.351L21.0961 189.292C20.7136 189.262 20.1253 189.056 19.5664 188.939C19.0369 188.733 18.478 188.586 17.9779 188.321C15.9188 187.38 14.1538 185.821 12.8889 183.938C11.6534 182.026 10.918 179.849 10.8591 177.584L10.8297 157.787C10.8003 144.432 10.7121 131.077 10.565 117.751C10.4767 111.074 10.3885 104.425 10.3002 97.7773L10.0649 87.8051L9.97664 82.8043L9.91781 80.3039V79.9803V79.8921V79.8627C9.91781 79.8333 9.91781 79.8333 9.91781 79.8333L9.94723 79.3038C9.97664 78.9214 9.94723 78.3919 10.0061 78.1271C10.0649 77.8624 10.0943 77.5682 10.1237 77.3035C10.1531 77.0387 10.2708 76.6563 10.3002 76.3327C10.3591 76.0091 10.4473 75.6856 10.565 75.362C10.6826 75.0384 10.7415 74.7148 10.8591 74.4206C11.3004 73.1852 11.977 72.0673 12.6535 71.0378C14.0949 69.0374 15.8599 67.4784 17.5367 66.39C20.8607 64.272 23.6553 63.6248 23.1258 62.2128C22.8905 61.6539 22.008 61.0068 20.4783 60.742C18.9487 60.389 16.7424 60.4478 14.1538 61.2715C11.5945 62.0952 8.56465 63.7425 6.06426 66.6253C3.53444 69.4787 1.53413 73.4499 1.1223 78.333L1.03405 79.6274L1.00463 81.1276L0.945799 83.7457L0.798717 88.9818C0.739884 92.4823 0.681051 95.9829 0.622218 99.4834C0.504552 106.485 0.386887 113.486 0.298637 120.487C0.0927224 134.489 -0.0249433 148.521 0.00447314 162.523L0.0338896 170.965L0.063306 175.201C0.063306 175.937 0.063306 176.554 0.0927224 177.378C0.151555 178.261 0.122139 179.143 0.298637 180.026C0.7693 183.556 2.06362 186.968 4.06394 189.91C6.06426 192.822 8.74115 195.293 11.8299 197.028C12.5947 197.47 13.4184 197.823 14.2126 198.205C15.0363 198.499 15.8599 198.852 16.713 199.087C17.5955 199.293 18.3603 199.558 19.3899 199.676L20.8313 199.882C21.3314 199.941 21.5667 199.911 21.9491 199.941L23.2435 199.999H24.3024L26.4204 199.97L30.627 199.941L47.512 199.793C70.0156 199.588 92.5191 199.352 115.023 199.146L118.817 199.293C119.465 199.323 120.024 199.352 120.788 199.352C121.553 199.323 122.318 199.352 123.083 199.264C126.172 198.999 129.201 198.058 131.937 196.528C137.409 193.498 141.615 188.027 143.027 181.761C143.821 177.878 143.557 175.848 143.704 173.201L143.88 165.582C143.968 160.493 144.057 155.404 144.145 150.315C144.439 129.959 144.557 109.544 144.557 89.07V81.3923V80.4216C144.469 80.1274 144.469 79.8333 144.439 79.3626Z" fill="#EA8282"/>
<path d="M43.3342 148.462C42.9518 148.815 43.0989 150.11 43.4225 150.816C44.0696 152.198 45.3934 152.581 46.7465 152.522C51.1884 152.375 54.9243 150.492 58.0424 147.904C62.6902 143.991 67.4851 140.226 71.927 136.078C71.9564 136.108 72.0152 136.137 72.0447 136.166C72.8095 137.108 73.5743 138.049 74.3686 138.961C79.4282 144.727 84.7231 150.227 90.9594 154.758C92.7244 156.052 94.9601 156.376 96.725 154.346C98.343 152.522 98.5195 150.169 97.1663 148.404C94.6953 145.227 92.2537 141.991 89.3709 139.196C85.841 135.784 82.1051 132.578 78.3986 129.342C78.7516 128.93 79.1046 128.548 79.4282 128.136C80.3695 127.371 81.3108 126.606 82.2228 125.812C87.9884 120.752 93.4892 115.457 98.0194 109.221C99.3137 107.456 99.6373 105.22 97.6075 103.455C95.7837 101.837 93.4304 101.661 91.6654 103.014C88.4884 105.485 85.2526 107.927 82.4581 110.809C78.9281 114.457 75.6335 118.281 72.3094 122.105C66.485 113.81 58.366 107.574 51.6885 100.043C51.3355 99.6606 50.0412 99.8077 49.3352 100.131C47.9526 100.778 47.5702 102.102 47.629 103.455C47.7761 107.897 49.6588 111.633 52.2474 114.751C56.1892 119.428 59.9839 124.253 64.1611 128.724C56.454 134.46 50.4824 142.109 43.3342 148.462Z" fill="#EA8282"/>
<path d="M11.7131 57.5147C22.5782 46.9334 38.6509 51.912 41.1695 56.4682C41.7437 57.5069 40.5935 58.345 39.4082 58.4064C37.2616 58.5176 34.24 58.8106 31.7621 59.4572C29.1964 60.1268 27.3116 63.0847 26.251 65.5001C25.7222 66.7043 24.58 67.5816 23.2648 67.5816H12.5596C9.39484 67.5816 10.4325 62.2926 10.7953 59.5014C10.8914 58.7619 11.1789 58.035 11.7131 57.5147Z" fill="white" stroke="black" stroke-width="1.47716"/>
<path d="M15.8249 65.7924C15.8302 63.262 17.3105 59.7714 18.4922 57.6641C18.7486 57.207 18.3547 56.6106 17.8385 56.7007C17.6933 56.726 17.5624 56.8049 17.4745 56.9233C15.4449 59.6584 14.5631 62.8128 14.3949 64.2093C14.4089 65.127 14.5112 67.0348 14.8084 67.3246C14.8225 67.3383 14.8373 67.3506 14.8528 67.3615C15.4705 67.7964 15.8233 66.5479 15.8249 65.7924Z" fill="black" stroke="black" stroke-width="0.980641"/>
<path d="M21.612 65.7924C21.6174 63.262 23.0976 59.7714 24.2793 57.6641C24.5357 57.207 24.1418 56.6106 23.6256 56.7007C23.4804 56.726 23.3495 56.8049 23.2617 56.9233C21.232 59.6584 20.3502 62.8128 20.182 64.2093C20.196 65.127 20.2983 67.0348 20.5955 67.3246C20.6096 67.3383 20.6244 67.3506 20.6399 67.3615C21.2576 67.7964 21.6104 66.5479 21.612 65.7924Z" fill="black" stroke="black" stroke-width="0.980641"/>
<path d="M82.3279 9.42381C82.571 5.2377 86.1616 2.04131 90.3477 2.28446L96.4038 2.63623C100.59 2.87938 103.786 6.47 103.543 10.6561L103.11 18.1084C102.81 23.286 98.3685 27.2394 93.191 26.9387L90.7252 26.7954C85.5477 26.4947 81.5942 22.0537 81.895 16.8761L82.3279 9.42381Z" stroke="black" stroke-width="1.5984"/>
<path d="M98.7787 19.2771C95.4407 16.207 89.7963 16.28 86.454 19.1731C85.1435 20.3075 83.8199 18.8732 85.1348 17.7349C89.5823 13.8848 96.1055 14.1186 100.531 18.1896C101.808 19.3631 100.054 20.4503 98.7787 19.2771Z" fill="black"/>
<rect x="94.9854" y="7.79071" width="2.7972" height="4.39559" rx="1.3986" fill="black"/>
<rect x="87.7949" y="8.26941" width="2.3976" height="3.996" rx="1.1988" fill="black"/>
<path d="M158.793 44.2076L143.283 74.4893" stroke="black" stroke-width="1.47716"/>
<path d="M144.022 27.2203L137.149 40.5797C136.323 42.1841 134.264 42.6788 132.724 41.7378C117.248 32.2784 83.7577 22.7431 57.7377 47.0592C55.2367 49.6662 50.0846 55.1092 49.4844 56.0248" stroke="black" stroke-width="1.47716"/>
<circle cx="163.412" cy="24.0797" r="20.8648" fill="#EA8282"/>
<path d="M150.039 35.0338C149.857 35.2018 149.927 35.8177 150.081 36.1537C150.389 36.8117 151.02 36.9937 151.664 36.9657C153.779 36.8957 155.558 35.9997 157.043 34.7678C159.256 32.9058 161.539 31.1139 163.654 29.14C163.668 29.154 163.696 29.168 163.71 29.182C164.074 29.63 164.438 30.0779 164.816 30.5119C167.226 33.2558 169.747 35.8737 172.716 38.0297C173.557 38.6456 174.621 38.7996 175.462 37.8337C176.232 36.9657 176.316 35.8457 175.672 35.0058C174.495 33.4938 173.333 31.9539 171.96 30.6239C170.279 29 168.5 27.474 166.735 25.9341C166.903 25.7381 167.071 25.5561 167.226 25.3601C167.674 24.9961 168.122 24.6321 168.556 24.2542C171.302 21.8462 173.921 19.3263 176.078 16.3584C176.694 15.5185 176.848 14.4545 175.882 13.6145C175.013 12.8446 173.893 12.7606 173.052 13.4046C171.54 14.5805 169.999 15.7425 168.668 17.1144C166.987 18.8504 165.419 20.6703 163.836 22.4902C161.063 18.5424 157.197 15.5745 154.017 11.9906C153.849 11.8086 153.233 11.8786 152.897 12.0326C152.238 12.3406 152.056 12.9706 152.084 13.6145C152.154 15.7285 153.051 17.5064 154.283 18.9904C156.16 21.2163 157.967 23.5122 159.956 25.6401C156.286 28.37 153.443 32.0099 150.039 35.0338Z" fill="white"/>
<path d="M169.966 4.41716C164.995 -0.169342 158.046 1.27646 153.633 3.40756C152.068 4.16373 151.862 6.17432 153.029 7.46365L153.686 8.19038C154.125 8.67576 154.391 9.29325 154.441 9.9459L154.499 10.7015C154.627 12.3641 156.105 13.5915 157.763 13.4121L167.829 12.323C168.204 12.2824 168.575 12.18 168.884 11.9626C170.852 10.5758 170.965 8.07276 170.733 5.96325C170.668 5.37323 170.402 4.81967 169.966 4.41716Z" fill="white" stroke="black" stroke-width="1.47716"/>
<path d="M160.728 11.6208C160.91 9.28115 159.929 6.01028 159.157 4.18346C159.007 3.82702 159.305 3.4188 159.687 3.476C159.828 3.49705 159.952 3.58048 160.022 3.7048C161.319 6.02383 161.788 8.75605 161.838 9.98041C161.783 10.7958 161.615 12.4945 161.389 12.7664C161.013 13.2172 160.682 12.206 160.728 11.6208Z" fill="black" stroke="black" stroke-width="0.980641"/>
<path d="M165.925 11.2523C166.107 8.91262 165.126 5.64175 164.355 3.81493C164.204 3.45849 164.502 3.05027 164.885 3.10747C165.025 3.12852 165.15 3.21195 165.219 3.33627C166.516 5.6553 166.985 8.38752 167.036 9.61188C166.98 10.4272 166.813 12.126 166.586 12.3979C166.21 12.8487 165.88 11.8374 165.925 11.2523Z" fill="black" stroke="black" stroke-width="0.980641"/>
<path d="M143.484 13.5547H145.694C147.32 13.5547 148.639 14.8732 148.639 16.4996C148.639 17.4345 148.2 18.3203 147.421 18.8361C144.665 20.6588 140.654 22.6753 140.145 20.3865C139.71 18.4301 140.448 16.2871 141.212 14.8254C141.647 13.9934 142.546 13.5547 143.484 13.5547Z" fill="white" stroke="black" stroke-width="1.47716"/>
</svg>
