<svg width="674" height="469" viewBox="0 0 674 469" fill="none" xmlns="http://www.w3.org/2000/svg">
<path d="M104.856 383.85C90.6853 368.774 88.3988 347.417 89.027 338.623L342.295 332.216L422.573 302.442C433.628 311.739 446.995 336.739 412.02 362.367C377.044 387.996 301.717 408.976 268.425 416.262C215.661 431.715 162.896 420.408 152.72 416.262C142.544 412.117 122.57 402.694 104.856 383.85Z" fill="url(#paint0_linear_43_974)"/>
<path d="M122.578 389.88C99.362 374.804 90.794 351.186 89.4121 341.261C89.4121 292.642 102.226 277.19 154.237 208.219C206.248 139.249 466.301 171.661 488.914 185.606C511.528 199.551 514.92 274.175 420.321 343.522C344.641 399 232.756 412.619 186.273 412.493C174.715 411.237 145.795 404.955 122.578 389.88Z" fill="url(#paint1_linear_43_974)" stroke="url(#paint2_linear_43_974)" stroke-width="0.852689"/>
<path d="M310.119 404.795L302.491 396.091L326.692 357.501L332.49 359.529L310.119 404.795Z" fill="url(#paint3_linear_43_974)" stroke="white" stroke-opacity="0.37" stroke-width="0.624616"/>
<path d="M302.909 395.649L246.405 388.923L294.439 347.655L326.611 357.238L302.909 395.649Z" fill="url(#paint4_linear_43_974)" stroke="url(#paint5_linear_43_974)" stroke-width="0.624616"/>
<path d="M302.897 395.644L246.994 462.902L246.143 389.007L302.897 395.644Z" fill="url(#paint6_linear_43_974)"/>
<path d="M315.799 444.989L247.654 462.378L302.901 395.648L310.123 404.791L315.799 444.989Z" fill="url(#paint7_linear_43_974)" stroke="url(#paint8_linear_43_974)" stroke-width="0.624616"/>
<path d="M323.951 437.077L315.798 444.986L310.122 404.787L332.493 359.521L341.246 366.648L323.951 437.077Z" fill="url(#paint9_linear_43_974)" stroke="url(#paint10_linear_43_974)" stroke-width="0.624616"/>
<path d="M301.874 364.423L303.052 395.301L329.973 352.51L301.874 364.423Z" fill="#0EA6B7"/>
<path d="M370.115 13.6641C363.783 -1.20169 353.942 -1.01816 349.812 0.931828C367.706 55.7153 335.474 173.334 317.121 225.295L344.65 235.963C349.33 230.732 364.724 163.125 371.836 129.975C375.139 120.34 377.112 78.4723 377.686 58.743C377.8 49.9108 376.447 28.5299 370.115 13.6641Z" fill="url(#paint11_linear_43_974)"/>
<path d="M295.449 52.2043C287.191 64.8678 262.185 85.6983 250.714 94.5306L198.064 180.215L329.517 234.586C335.137 218.298 347.824 181.592 353.605 165.074C359.386 148.557 363.584 108.869 364.961 91.0893C374.045 31.3508 364.961 7.46915 353.605 1.27512C341.217 -3.88623 308.985 33.5073 295.449 52.2043Z" fill="url(#paint12_linear_43_974)" stroke="url(#paint13_linear_43_974)" stroke-width="0.778542"/>
<path d="M23.1428 369.592C20.0071 363.548 25.7549 353.826 29.0201 349.722C85.4415 391.366 131.825 363.902 147.964 344.964L165.876 367.353C91.5426 400.938 58.6873 395.776 45.8133 388.623C30.7016 380.227 25.611 374.35 23.1428 369.592Z" fill="#16294C"/>
<path d="M29.3863 359.799C22.1101 342.709 56.5338 318.379 78.3633 306.065C79.2961 305.318 91.7969 297.949 101.033 297.109C117.744 295.59 143.666 339.649 155.047 364.277C132.882 375.92 105.884 381.816 95.1553 383.308C52.1675 387.115 33.3977 369.222 29.3863 359.799Z" fill="url(#paint14_linear_43_974)" stroke="url(#paint15_linear_43_974)" stroke-width="0.633186"/>
<path d="M583.69 370.644C580.605 376.714 569.355 377.708 564.117 377.446C565.086 307.327 515.739 285.634 490.944 283.552L498.703 255.949C569.31 296.791 584.259 326.5 585.947 341.131C587.929 358.304 586.119 365.866 583.69 370.644Z" fill="#16294C"/>
<path d="M572.085 371.269C562.435 387.141 522.604 373.341 499.876 362.775C498.726 362.452 485.453 356.587 479.389 349.57C468.417 336.874 489.12 290.135 502.504 266.535C524.881 277.765 545.404 296.271 552.868 304.12C581.009 336.838 577.405 362.518 572.085 371.269Z" fill="url(#paint16_linear_43_974)" stroke="url(#paint17_linear_43_974)" stroke-width="0.633186"/>
<path d="M180.792 156.135C186.332 145.532 189.668 135.526 189.783 132.391C198.555 133.104 216.305 134.529 217.136 134.529C220.252 149.493 207.095 158.471 206.403 160.609C199.201 157.53 185.755 156.705 180.792 156.135Z" fill="url(#paint18_linear_43_974)"/>
<path d="M179.426 132.045C185.207 136.725 206.84 136.06 216.934 135.142C222.784 132.618 234.071 126.814 232.419 123.786C230.768 120.758 222.325 119.772 218.311 119.657C207.849 119.381 192.846 123.901 186.652 126.195C178.118 128.122 178.279 130.898 179.426 132.045Z" fill="url(#paint19_linear_43_974)"/>
<path d="M205.892 160.603C213.6 146.563 217.169 121.484 217.399 111.734C220.977 107.88 251.774 112.428 267.488 115.181C269.897 130.322 274.715 190.886 274.715 192.606C255.1 181.594 206.924 160.603 205.892 160.603Z" fill="url(#paint20_linear_43_974)"/>
<path d="M249.183 84.1187C257.104 84.7408 278.193 96.3796 286.499 102.046C290.648 104.764 291.01 106.482 291.018 107.514C290.041 114.06 278.697 115.532 271.135 116.627C265.086 117.504 233.038 114.996 217.77 113.632C184.021 110.618 188.675 104.928 189.82 104.574C196.685 102.452 212.345 95.7832 221.724 92.6077C238.187 85.9317 246.659 84.0251 249.183 84.1187Z" fill="url(#paint21_linear_43_974)"/>
<ellipse cx="232.443" cy="91.8355" rx="14.0872" ry="1.93234" transform="rotate(-19.8008 232.443 91.8355)" fill="#FFF0FF" fill-opacity="0.79"/>
<ellipse cx="207.168" cy="123.189" rx="7.03139" ry="1.55611" transform="rotate(-10.8311 207.168 123.189)" fill="#FFF0FF" fill-opacity="0.79"/>
<ellipse cx="192.514" cy="126.943" rx="3.88198" ry="1.08254" transform="rotate(-10.8311 192.514 126.943)" fill="#FFF0FF" fill-opacity="0.79"/>
<ellipse cx="209.728" cy="99.8741" rx="6.13169" ry="0.914494" transform="rotate(-19.8008 209.728 99.8741)" fill="#FFF0FF" fill-opacity="0.79"/>
<path d="M245.898 142.502H238.921C238.061 142.502 237.393 141.807 237.476 140.952C237.704 138.632 238.231 134.562 238.601 131.833C238.693 131.152 238.907 130.484 239.286 129.911C242.439 125.149 246.031 126.355 247.883 127.925C248.215 128.206 248.359 128.641 248.327 129.074L247.45 141.059C247.391 141.873 246.714 142.502 245.898 142.502Z" fill="url(#paint22_linear_43_974)"/>
<path d="M237.365 153.686V163.322C243.972 168.552 246.083 165.501 246.312 163.322V151.278C239.981 147.974 237.709 151.507 237.365 153.686Z" fill="url(#paint23_linear_43_974)"/>
<rect x="200.203" y="140.294" width="6.19409" height="5.50586" rx="0.778542" fill="url(#paint24_linear_43_974)"/>
<path d="M563.112 295.315C548.676 288.563 539.105 304.591 536.125 313.449C535.679 313.33 527.588 313.344 523.599 313.366C534.968 298.499 558.099 267.974 559.667 264.81C561.235 261.647 571.692 258.983 576.724 258.046C585.889 256.34 601.368 257.506 609.319 259.047C614.805 260.125 629.22 263.924 642.988 270.496C656.755 277.068 653.098 284.37 649.548 287.199C640.008 291.564 629.464 284.485 625.385 280.4C620.772 275.334 614.54 273.698 612.001 273.512C609.15 273.741 604.983 275.389 611.112 280.145C617.242 284.901 615.461 288.784 613.804 290.131C610.435 293.766 604.292 288.468 601.641 285.365C593.523 279.117 585.772 281.792 582.911 283.911C579.843 286.431 579.67 292.998 579.967 295.966C579.232 305.806 568.424 299.632 563.112 295.315Z" fill="url(#paint25_linear_43_974)"/>
<path d="M498.863 248.747C547.135 253.668 561.581 208.855 561.731 208.298C560.338 207.923 577.354 211.306 568.273 241.727C561.008 266.064 531.159 297.869 517.143 310.73L498.291 288.628L498.863 248.747Z" fill="url(#paint26_linear_43_974)"/>
<g filter="url(#filter0_i_43_974)">
<path d="M571.174 247.585C556.017 284.379 525.68 314.519 512.406 324.99L514.725 293.048C516.207 292.351 519.651 289.175 521.57 282.043C523.489 274.91 521.638 262.541 520.473 257.249C520.462 253.959 522.115 247.592 528.818 248.439C535.522 249.287 540.849 256.656 542.675 260.234C543.639 261.091 545.719 270.016 548.783 263.072C551.233 257.517 548.552 249.865 546.905 246.733C541.263 236.61 541.43 231.915 542.219 230.832C543.13 228.189 546.856 225.148 554.478 234.13C562.1 243.112 563.098 241.329 562.644 239.315C558.354 216.172 560.564 193.741 562.205 185.419C568.171 168.799 580.677 177.84 582.799 184.387C584.922 190.933 590.121 201.594 571.174 247.585Z" fill="url(#paint27_linear_43_974)"/>
</g>
<path d="M216.955 161.158C202.089 154.551 188.967 155.193 184.264 156.34C181.855 168.728 189.426 173.202 203.879 204.86C215.441 230.187 279.813 269.554 310.555 286.072L349.784 232.389C291.146 193.298 236.799 168.613 216.955 161.158Z" fill="url(#paint28_linear_43_974)"/>
<path d="M184.259 156.339C197.197 196.807 244.708 235.6 266.846 249.938L310.205 286.07H224.176L178.065 254.412C176.413 243.4 174.394 225.735 173.591 218.28C167.535 173.132 178.179 158.174 184.259 156.339Z" fill="url(#paint29_linear_43_974)"/>
<path d="M548.892 295.397C543.271 292.53 532.856 286.726 532.03 286.45L532.719 297.118L548.892 295.397Z" fill="url(#paint30_linear_43_974)" stroke="url(#paint31_linear_43_974)" stroke-width="0.778542"/>
<path d="M421.571 315.701L392.665 304.001L395.418 334.972L424.324 347.36L421.571 315.701Z" fill="url(#paint32_linear_43_974)" stroke="url(#paint33_linear_43_974)" stroke-width="0.778542"/>
<path d="M494.868 183.905L522.397 195.949L481.103 202.831L452.886 190.099L494.868 183.905Z" fill="url(#paint34_linear_43_974)" stroke="url(#paint35_linear_43_974)" stroke-width="0.778542"/>
<path d="M480.763 202.824L451.858 190.092C432.473 227.486 393.285 302.419 392.669 303.65C392.325 304.338 412.513 312.253 422.263 315.694L480.763 202.824Z" fill="url(#paint36_linear_43_974)" stroke="url(#paint37_linear_43_974)" stroke-width="0.778542"/>
<g filter="url(#filter1_d_43_974)">
<path d="M480.766 202.821L522.404 195.939L533.071 297.453L550.277 295.732L553.718 328.079L535.48 330.488L538.233 360.426L501.069 365.588L497.972 336.682L424.331 347.694L421.922 315.691L480.766 202.821Z" fill="url(#paint38_linear_43_974)" shape-rendering="crispEdges"/>
<path d="M480.766 202.821L522.404 195.939L533.071 297.453L550.277 295.732L553.718 328.079L535.48 330.488L538.233 360.426L501.069 365.588L497.972 336.682L424.331 347.694L421.922 315.691L480.766 202.821Z" stroke="url(#paint39_linear_43_974)" stroke-width="0.778542" shape-rendering="crispEdges"/>
</g>
<path d="M459.433 310.539L502.639 231.393L510.71 303.98L459.433 310.539Z" fill="#1843CD" stroke="#2FACFF" stroke-width="0.389271"/>
<path d="M509.761 303.986L471.777 288.244L459.433 310.545L509.761 303.986Z" fill="url(#paint40_linear_43_974)"/>
<path d="M471.477 353.548V341.16L497.973 337.03L500.726 365.936L471.477 353.548Z" fill="url(#paint41_linear_43_974)" stroke="url(#paint42_linear_43_974)" stroke-width="0.778542"/>
<path d="M0 294.181C-0.00135759 283.773 6.62349 277.675 8.83132 275.257C4.79503 296.704 14.7185 307.954 20.1848 310.898L12.9316 318.783C7.8851 314.472 0.00123972 303.683 0 294.181Z" fill="#1C355E"/>
<path d="M36.1749 183.164C29.1098 147.334 39.7495 121.134 45.9524 112.513C75.9167 123.237 50.4952 178.433 63.616 206.188C76.7368 233.944 58.149 246.56 47.215 249.399C49.1074 238.044 45.0062 227.951 36.1749 183.164Z" fill="#1F4378"/>
<path d="M145.293 183.796C147.287 213.75 172.418 226.376 181.88 219.437C209.004 247.193 186.611 307.119 172.418 302.388C158.225 297.657 121.322 297.341 73.0655 316.266C34.46 331.405 10.6102 318.474 5.88506 302.388C1.71627 288.185 2.20556 269.172 35.2116 254.131C60.1282 242.777 50.9879 220.067 47.203 197.043C44.1752 178.623 42.366 156.987 41.84 148.471C39.3167 94.9785 71.6982 82.4464 88.2044 82.8669C111.229 84.1286 123.53 98.9525 131.099 117.877C142.197 145.622 144.578 173.062 145.293 183.796Z" fill="url(#paint43_linear_43_974)" stroke="url(#paint44_linear_43_974)" stroke-width="0.713583"/>
<g filter="url(#filter2_i_43_974)">
<path d="M13.6267 305.01C15.7832 304.968 16.3715 304.59 16.7458 301.721C16.8146 301.193 16.4682 300.693 15.9472 300.583C10.8556 299.506 11.5407 302.463 12.7363 304.521C12.9188 304.835 13.2632 305.017 13.6267 305.01Z" fill="#060414"/>
</g>
<g filter="url(#filter3_ii_43_974)">
<path d="M78.629 288.176C82.2733 284.915 93.7337 284.739 99.0083 285.059L180.381 296.062L159.666 357.945C163.502 372.011 166.091 399.759 145.76 398.224C120.346 396.306 99.7268 385.038 83.4234 376.406C70.3807 369.501 64.8823 356.267 63.7634 350.513C63.6036 347.875 61.8933 342.553 56.331 342.361C50.7686 342.169 42.9846 341.162 39.7878 340.683C21.1827 336.463 12.8557 326.297 11.0178 321.742C8.93996 318.146 6.79814 309.227 14.8539 302.322C24.9237 293.691 55.6599 298.018 58.4895 298.726C60.4068 299.205 64.1252 300.853 67.3605 298.965C73.1139 295.609 74.0737 292.252 78.629 288.176Z" fill="url(#paint45_linear_43_974)"/>
<path d="M78.629 288.176C82.2733 284.915 93.7337 284.739 99.0083 285.059L180.381 296.062L159.666 357.945C163.502 372.011 166.091 399.759 145.76 398.224C120.346 396.306 99.7268 385.038 83.4234 376.406C70.3807 369.501 64.8823 356.267 63.7634 350.513C63.6036 347.875 61.8933 342.553 56.331 342.361C50.7686 342.169 42.9846 341.162 39.7878 340.683C21.1827 336.463 12.8557 326.297 11.0178 321.742C8.93996 318.146 6.79814 309.227 14.8539 302.322C24.9237 293.691 55.6599 298.018 58.4895 298.726C60.4068 299.205 64.1252 300.853 67.3605 298.965C73.1139 295.609 74.0737 292.252 78.629 288.176Z" fill="url(#paint46_linear_43_974)" fill-opacity="0.2"/>
</g>
<path d="M78.629 288.176C82.2733 284.915 93.7337 284.739 99.0083 285.059L180.381 296.062L159.666 357.945C163.502 372.011 166.091 399.759 145.76 398.224C120.346 396.306 99.7268 385.038 83.4234 376.406C70.3807 369.501 64.8823 356.267 63.7634 350.513C63.6036 347.875 61.8933 342.553 56.331 342.361C50.7686 342.169 42.9846 341.162 39.7878 340.683C21.1827 336.463 12.8557 326.297 11.0178 321.742C8.93996 318.146 6.79814 309.227 14.8539 302.322C24.9237 293.691 55.6599 298.018 58.4895 298.726C60.4068 299.205 64.1252 300.853 67.3605 298.965C73.1139 295.609 74.0737 292.252 78.629 288.176Z" stroke="url(#paint47_linear_43_974)" stroke-width="0.542434"/>
<g filter="url(#filter4_i_43_974)">
<path d="M44.9389 339.823C44.2398 338.665 43.6651 337.652 41.1261 338.226C40.6068 338.344 40.2848 338.864 40.3862 339.387C41.3571 344.391 43.5169 342.88 44.9105 341.038C45.1774 340.686 45.1675 340.201 44.9389 339.823Z" fill="#060414"/>
</g>
<g filter="url(#filter5_i_43_974)">
<circle cx="61.1363" cy="312.521" r="2.63732" fill="#060414"/>
</g>
<circle cx="89.4245" cy="345.124" r="3.59634" fill="#E832FD"/>
<circle cx="119.64" cy="366.702" r="3.11683" fill="#9722D2"/>
<circle cx="110.535" cy="351.357" r="1.67829" fill="#9722D2"/>
<circle cx="96.8643" cy="365.503" r="1.91805" fill="#9722D2"/>
<circle cx="140.502" cy="375.576" r="1.91805" fill="#9722D2"/>
<path d="M130.976 248.853C128.206 264.548 146.171 269.625 155.499 270.202C155.499 270.664 157.615 278.473 158.673 282.32C141.362 275.204 105.876 260.797 102.414 260.105C98.9516 259.413 93.6623 250.007 91.4504 245.391C87.4221 236.984 84.5261 221.733 83.9491 213.655C83.5644 208.077 83.4874 193.171 86.2571 178.169C89.0268 163.166 97.0281 164.801 100.683 167.494C107.376 175.572 103.279 187.593 100.394 192.594C96.7012 198.364 96.7396 204.807 97.2205 207.308C98.1822 210.001 100.856 213.597 103.856 206.442C106.857 199.287 111.069 199.999 112.8 201.249C117.185 203.557 113.665 210.866 111.357 214.232C107.434 223.695 112.03 230.485 114.819 232.697C118.051 235.005 124.436 233.466 127.225 232.408C136.919 230.562 133.765 242.602 130.976 248.853Z" fill="url(#paint48_linear_43_974)"/>
<path d="M102.705 323.002C94.9157 275.109 47.889 272.801 47.3119 272.801C47.3119 274.244 46.1579 256.933 77.8938 257.799C103.282 258.491 141.75 279.052 157.81 289.246L141.366 313.192L102.705 323.002Z" fill="url(#paint49_linear_43_974)"/>
<g filter="url(#filter6_i_43_974)">
<path d="M82.7949 253.471C122.263 258.549 159.25 280.014 172.809 290.112L141.362 296.171C140.304 294.92 136.342 292.42 128.956 292.42C121.57 292.42 110.107 297.421 105.299 299.921C102.125 300.787 95.5471 300.844 94.6238 294.151C93.7006 287.458 99.4323 280.399 102.414 277.706C102.991 276.552 111.069 272.224 103.568 271.07C97.5666 270.147 90.8732 274.725 88.2767 277.129C79.9676 285.207 75.39 286.265 74.1398 285.784C71.3509 285.592 67.4464 282.784 74.1398 273.09C80.8332 263.396 78.8521 262.896 77.0249 263.858C55.7907 274.013 33.5563 277.706 25.0934 278.283C7.49438 276.84 12.976 262.415 18.7462 258.665C24.5163 254.914 33.4601 247.124 82.7949 253.471Z" fill="url(#paint50_linear_43_974)"/>
</g>
<path d="M218.107 389.124L203.894 377.044L185.418 398.718L177.957 403.337L184.708 409.732L218.107 389.124Z" fill="url(#paint51_linear_43_974)" stroke="#1DBFFF" stroke-opacity="0.56" stroke-width="0.803862"/>
<path d="M122.182 391.62L155.936 371.723L185.426 398.371L152.383 419.334L122.182 391.62Z" fill="url(#paint52_linear_43_974)" stroke="#2593E6" stroke-width="0.803862"/>
<path d="M139.592 368.877L172.28 349.335L155.581 371.72L122.182 391.617L139.592 368.877Z" fill="url(#paint53_linear_43_974)" stroke="#2CC0FF" stroke-width="0.803862"/>
<path d="M81.3145 314.871L115.424 294.974L173.694 348.27L139.585 368.878L81.3145 314.871Z" fill="url(#paint54_linear_43_974)" stroke="#154ACE" stroke-width="0.803862"/>
<path d="M98.7245 291.778L132.479 271.881L115.069 294.976L81.3145 314.162L98.7245 291.778Z" fill="url(#paint55_linear_43_974)" stroke="#14BAF2" stroke-opacity="0.38" stroke-width="0.803862"/>
<path fill-rule="evenodd" clip-rule="evenodd" d="M251.504 244.528L133.187 271.886L115.066 294.626L172.982 348.277L155.927 371.017L185.417 398.376L203.893 376.702L218.461 389.138L238.358 363.911L224.146 351.475L285.969 275.439L251.504 244.528ZM209.928 299.239L181.504 307.11L192.973 318.425L209.928 299.239Z" fill="url(#paint56_linear_43_974)"/>
<path d="M235.161 282.896L203.894 302.082L191.103 316.295L200.696 327.309L235.161 282.896Z" fill="url(#paint57_linear_43_974)"/>
<path d="M203.899 302.082L235.166 282.896L172.276 298.529L182.58 308.123L203.899 302.082Z" fill="url(#paint58_linear_43_974)"/>
<path d="M172.276 298.529L234.455 282.896L200.701 326.599L172.276 298.529Z" stroke="#2593E6" stroke-opacity="0.5" stroke-width="0.803862"/>
<path d="M337.429 267.73C326.088 245.575 310.805 242.435 304.581 243.633C304.581 219.537 327.056 213.423 346.764 220.257C366.473 227.09 372.696 269.887 373.388 294.703C373.941 314.555 360.249 319.039 353.334 318.799C354.164 304.413 343.076 278.759 337.429 267.73Z" fill="url(#paint59_linear_43_974)"/>
<path d="M251.595 261.344C252.421 237.944 269.603 219.247 278.092 212.824C272.586 234.847 287.039 246.891 304.245 295.067C318.009 333.608 368.25 342.555 391.65 342.211C383.391 352.397 371.462 361.138 366.53 364.235C323.309 389.837 290.939 357.467 280.156 338.082C270.292 322.253 250.769 284.744 251.595 261.344Z" fill="url(#paint60_linear_43_974)" stroke="url(#paint61_linear_43_974)" stroke-width="0.778542"/>
<path fill-rule="evenodd" clip-rule="evenodd" d="M389.765 235.24C373.023 208.054 351.568 179.149 304.769 194.29C257.969 209.431 264.851 260.016 274.142 283.416C281.369 303.719 303.599 346.527 334.707 355.336C365.815 364.145 395.959 344.668 404.562 330.903C412.696 317.889 417.57 280.388 389.765 235.24ZM315.475 229.039C326.831 222.551 343.692 219.403 361.586 261.73C368.698 274.807 379.549 303.437 366.06 313.348C357.113 320.459 338.186 328.489 319.604 292.013C319.122 290.969 318.611 289.874 318.079 288.735C309.485 270.345 295.513 240.446 315.475 229.039Z" fill="url(#paint62_linear_43_974)"/>
<defs>
<filter id="filter0_i_43_974" x="512.405" y="175.972" width="72.6807" height="152.851" filterUnits="userSpaceOnUse" color-interpolation-filters="sRGB">
<feFlood flood-opacity="0" result="BackgroundImageFix"/>
<feBlend mode="normal" in="SourceGraphic" in2="BackgroundImageFix" result="shape"/>
<feColorMatrix in="SourceAlpha" type="matrix" values="0 0 0 0 0 0 0 0 0 0 0 0 0 0 0 0 0 0 127 0" result="hardAlpha"/>
<feOffset dy="3.83335"/>
<feGaussianBlur stdDeviation="4.31252"/>
<feComposite in2="hardAlpha" operator="arithmetic" k2="-1" k3="1"/>
<feColorMatrix type="matrix" values="0 0 0 0 0.192157 0 0 0 0 0.894118 0 0 0 0 0.737255 0 0 0 0.78 0"/>
<feBlend mode="normal" in2="shape" result="effect1_innerShadow_43_974"/>
</filter>
<filter id="filter1_d_43_974" x="421.525" y="195.487" width="145.855" height="176.77" filterUnits="userSpaceOnUse" color-interpolation-filters="sRGB">
<feFlood flood-opacity="0" result="BackgroundImageFix"/>
<feColorMatrix in="SourceAlpha" type="matrix" values="0 0 0 0 0 0 0 0 0 0 0 0 0 0 0 0 0 0 127 0" result="hardAlpha"/>
<feOffset dx="10.121" dy="3.11417"/>
<feGaussianBlur stdDeviation="1.55708"/>
<feComposite in2="hardAlpha" operator="out"/>
<feColorMatrix type="matrix" values="0 0 0 0 0 0 0 0 0 0 0 0 0 0 0 0 0 0 0.25 0"/>
<feBlend mode="normal" in2="BackgroundImageFix" result="effect1_dropShadow_43_974"/>
<feBlend mode="normal" in="SourceGraphic" in2="effect1_dropShadow_43_974" result="shape"/>
</filter>
<filter id="filter2_i_43_974" x="11.8828" y="300.354" width="4.87207" height="4.65644" filterUnits="userSpaceOnUse" color-interpolation-filters="sRGB">
<feFlood flood-opacity="0" result="BackgroundImageFix"/>
<feBlend mode="normal" in="SourceGraphic" in2="BackgroundImageFix" result="shape"/>
<feColorMatrix in="SourceAlpha" type="matrix" values="0 0 0 0 0 0 0 0 0 0 0 0 0 0 0 0 0 0 127 0" result="hardAlpha"/>
<feOffset/>
<feGaussianBlur stdDeviation="1.08487"/>
<feComposite in2="hardAlpha" operator="arithmetic" k2="-1" k3="1"/>
<feColorMatrix type="matrix" values="0 0 0 0 0 0 0 0 0 0 0 0 0 0 0 0 0 0 0.25 0"/>
<feBlend mode="normal" in2="shape" result="effect1_innerShadow_43_974"/>
</filter>
<filter id="filter3_ii_43_974" x="8.83789" y="282.506" width="171.904" height="119.847" filterUnits="userSpaceOnUse" color-interpolation-filters="sRGB">
<feFlood flood-opacity="0" result="BackgroundImageFix"/>
<feBlend mode="normal" in="SourceGraphic" in2="BackgroundImageFix" result="shape"/>
<feColorMatrix in="SourceAlpha" type="matrix" values="0 0 0 0 0 0 0 0 0 0 0 0 0 0 0 0 0 0 127 0" result="hardAlpha"/>
<feOffset dy="-2.16973"/>
<feGaussianBlur stdDeviation="1.08487"/>
<feComposite in2="hardAlpha" operator="arithmetic" k2="-1" k3="1"/>
<feColorMatrix type="matrix" values="0 0 0 0 0 0 0 0 0 0 0 0 0 0 0 0 0 0 0.39 0"/>
<feBlend mode="normal" in2="shape" result="effect1_innerShadow_43_974"/>
<feColorMatrix in="SourceAlpha" type="matrix" values="0 0 0 0 0 0 0 0 0 0 0 0 0 0 0 0 0 0 127 0" result="hardAlpha"/>
<feOffset dy="3.79704"/>
<feGaussianBlur stdDeviation="5.42434"/>
<feComposite in2="hardAlpha" operator="arithmetic" k2="-1" k3="1"/>
<feColorMatrix type="matrix" values="0 0 0 0 1 0 0 0 0 1 0 0 0 0 1 0 0 0 0.25 0"/>
<feBlend mode="normal" in2="effect1_innerShadow_43_974" result="effect2_innerShadow_43_974"/>
</filter>
<filter id="filter4_i_43_974" x="40.3672" y="338.061" width="4.74316" height="4.71914" filterUnits="userSpaceOnUse" color-interpolation-filters="sRGB">
<feFlood flood-opacity="0" result="BackgroundImageFix"/>
<feBlend mode="normal" in="SourceGraphic" in2="BackgroundImageFix" result="shape"/>
<feColorMatrix in="SourceAlpha" type="matrix" values="0 0 0 0 0 0 0 0 0 0 0 0 0 0 0 0 0 0 127 0" result="hardAlpha"/>
<feOffset/>
<feGaussianBlur stdDeviation="1.08487"/>
<feComposite in2="hardAlpha" operator="arithmetic" k2="-1" k3="1"/>
<feColorMatrix type="matrix" values="0 0 0 0 0 0 0 0 0 0 0 0 0 0 0 0 0 0 0.25 0"/>
<feBlend mode="normal" in2="shape" result="effect1_innerShadow_43_974"/>
</filter>
<filter id="filter5_i_43_974" x="58.499" y="308.799" width="5.27441" height="6.3595" filterUnits="userSpaceOnUse" color-interpolation-filters="sRGB">
<feFlood flood-opacity="0" result="BackgroundImageFix"/>
<feBlend mode="normal" in="SourceGraphic" in2="BackgroundImageFix" result="shape"/>
<feColorMatrix in="SourceAlpha" type="matrix" values="0 0 0 0 0 0 0 0 0 0 0 0 0 0 0 0 0 0 127 0" result="hardAlpha"/>
<feOffset dy="-1.08487"/>
<feGaussianBlur stdDeviation="1.08487"/>
<feComposite in2="hardAlpha" operator="arithmetic" k2="-1" k3="1"/>
<feColorMatrix type="matrix" values="0 0 0 0 0 0 0 0 0 0 0 0 0 0 0 0 0 0 0.25 0"/>
<feBlend mode="normal" in2="shape" result="effect1_innerShadow_43_974"/>
</filter>
<filter id="filter6_i_43_974" x="13.1533" y="251.064" width="159.656" height="53.0978" filterUnits="userSpaceOnUse" color-interpolation-filters="sRGB">
<feFlood flood-opacity="0" result="BackgroundImageFix"/>
<feBlend mode="normal" in="SourceGraphic" in2="BackgroundImageFix" result="shape"/>
<feColorMatrix in="SourceAlpha" type="matrix" values="0 0 0 0 0 0 0 0 0 0 0 0 0 0 0 0 0 0 127 0" result="hardAlpha"/>
<feOffset dy="3.83335"/>
<feGaussianBlur stdDeviation="4.31252"/>
<feComposite in2="hardAlpha" operator="arithmetic" k2="-1" k3="1"/>
<feColorMatrix type="matrix" values="0 0 0 0 0.192157 0 0 0 0 0.894118 0 0 0 0 0.737255 0 0 0 0.78 0"/>
<feBlend mode="normal" in2="shape" result="effect1_innerShadow_43_974"/>
</filter>
<linearGradient id="paint0_linear_43_974" x1="99.1106" y1="363.204" x2="332.782" y2="402.4" gradientUnits="userSpaceOnUse">
<stop offset="0.0213428" stop-color="#091425"/>
<stop offset="1" stop-color="#1B3157"/>
</linearGradient>
<linearGradient id="paint1_linear_43_974" x1="97.9893" y1="319.107" x2="363.696" y2="327.399" gradientUnits="userSpaceOnUse">
<stop offset="0.0124976" stop-color="#11213C"/>
<stop offset="1" stop-color="#1C3460"/>
</linearGradient>
<linearGradient id="paint2_linear_43_974" x1="277.012" y1="392.978" x2="272.489" y2="385.44" gradientUnits="userSpaceOnUse">
<stop stop-color="#41E3FF"/>
<stop offset="0.990982" stop-color="#1864A6"/>
</linearGradient>
<linearGradient id="paint3_linear_43_974" x1="307.48" y1="396.649" x2="339.204" y2="351.909" gradientUnits="userSpaceOnUse">
<stop stop-color="#3EB2EF"/>
<stop offset="1" stop-color="#413D8A"/>
</linearGradient>
<linearGradient id="paint4_linear_43_974" x1="259.979" y1="384.35" x2="352.068" y2="355.128" gradientUnits="userSpaceOnUse">
<stop stop-color="#169FB4"/>
<stop offset="1" stop-color="#22628E"/>
</linearGradient>
<linearGradient id="paint5_linear_43_974" x1="277.277" y1="392.52" x2="278.038" y2="379.496" gradientUnits="userSpaceOnUse">
<stop stop-color="white" stop-opacity="0.69"/>
<stop offset="1" stop-opacity="0"/>
</linearGradient>
<linearGradient id="paint6_linear_43_974" x1="249.285" y1="433.926" x2="299.319" y2="399.665" gradientUnits="userSpaceOnUse">
<stop stop-color="#35C8FB"/>
<stop offset="1" stop-color="#8963EB"/>
</linearGradient>
<linearGradient id="paint7_linear_43_974" x1="258.829" y1="456.612" x2="318.916" y2="454.713" gradientUnits="userSpaceOnUse">
<stop stop-color="#26DAF8"/>
<stop offset="1" stop-color="#9368FC"/>
</linearGradient>
<linearGradient id="paint8_linear_43_974" x1="274.277" y1="430.545" x2="293.657" y2="438.182" gradientUnits="userSpaceOnUse">
<stop stop-color="#4BDEFC"/>
<stop offset="1" stop-color="#52A6F6"/>
</linearGradient>
<linearGradient id="paint9_linear_43_974" x1="311.117" y1="406.777" x2="334.959" y2="374.062" gradientUnits="userSpaceOnUse">
<stop offset="0.0620736" stop-color="#A15BFD"/>
<stop offset="1" stop-color="#1EB3CE"/>
</linearGradient>
<linearGradient id="paint10_linear_43_974" x1="311.426" y1="408.426" x2="314.544" y2="408.401" gradientUnits="userSpaceOnUse">
<stop stop-color="#C0D5FF"/>
<stop offset="0.982332" stop-color="white" stop-opacity="0"/>
</linearGradient>
<linearGradient id="paint11_linear_43_974" x1="347.407" y1="0" x2="347.407" y2="235.963" gradientUnits="userSpaceOnUse">
<stop stop-color="#214073"/>
<stop offset="1" stop-color="#152849"/>
</linearGradient>
<linearGradient id="paint12_linear_43_974" x1="333.646" y1="23.7439" x2="251.747" y2="206.125" gradientUnits="userSpaceOnUse">
<stop offset="0.20341" stop-color="#214274"/>
<stop offset="1" stop-color="#11213E"/>
</linearGradient>
<linearGradient id="paint13_linear_43_974" x1="364.617" y1="85.6847" x2="326.764" y2="43.0144" gradientUnits="userSpaceOnUse">
<stop stop-color="#45C6FF"/>
<stop offset="1" stop-opacity="0"/>
</linearGradient>
<linearGradient id="paint14_linear_43_974" x1="34.357" y1="352.764" x2="128.673" y2="325.897" gradientUnits="userSpaceOnUse">
<stop offset="0.112606" stop-color="#214176"/>
<stop offset="1" stop-color="#0D1933"/>
</linearGradient>
<linearGradient id="paint15_linear_43_974" x1="31.1932" y1="338.771" x2="44.347" y2="342.409" gradientUnits="userSpaceOnUse">
<stop stop-color="#13B9FD"/>
<stop offset="1" stop-color="white" stop-opacity="0"/>
</linearGradient>
<linearGradient id="paint16_linear_43_974" x1="563.471" y1="371.328" x2="486.68" y2="310.333" gradientUnits="userSpaceOnUse">
<stop offset="0.112606" stop-color="#214176"/>
<stop offset="1" stop-color="#0D1933"/>
</linearGradient>
<linearGradient id="paint17_linear_43_974" x1="553.942" y1="382.053" x2="549.234" y2="369.243" gradientUnits="userSpaceOnUse">
<stop stop-color="#13B9FD"/>
<stop offset="1" stop-color="white" stop-opacity="0"/>
</linearGradient>
<linearGradient id="paint18_linear_43_974" x1="196.403" y1="134.788" x2="199.202" y2="160.609" gradientUnits="userSpaceOnUse">
<stop stop-color="#D8CFD0"/>
<stop offset="0.353447" stop-color="#EBE4E5"/>
</linearGradient>
<linearGradient id="paint19_linear_43_974" x1="205.723" y1="119.645" x2="205.723" y2="135.799" gradientUnits="userSpaceOnUse">
<stop stop-color="#D75CFD"/>
<stop offset="0.563256" stop-color="#C448FA"/>
<stop offset="0.813008" stop-color="#9126ED"/>
<stop offset="1" stop-color="#8021F0"/>
</linearGradient>
<linearGradient id="paint20_linear_43_974" x1="237.357" y1="116.207" x2="240.303" y2="192.606" gradientUnits="userSpaceOnUse">
<stop stop-color="#D2C9CA"/>
<stop offset="0.107444" stop-color="#FFF4F3"/>
<stop offset="1" stop-color="#A49EA5"/>
</linearGradient>
<linearGradient id="paint21_linear_43_974" x1="239.796" y1="84.1922" x2="240.071" y2="117.038" gradientUnits="userSpaceOnUse">
<stop stop-color="#D75CFD"/>
<stop offset="0.563256" stop-color="#C448FA"/>
<stop offset="0.813008" stop-color="#9126ED"/>
<stop offset="1" stop-color="#8021F0"/>
</linearGradient>
<linearGradient id="paint22_linear_43_974" x1="242.871" y1="126.534" x2="242.871" y2="142.502" gradientUnits="userSpaceOnUse">
<stop stop-color="#37299D"/>
<stop offset="1" stop-color="#226BD0"/>
</linearGradient>
<linearGradient id="paint23_linear_43_974" x1="241.839" y1="149.929" x2="241.839" y2="166.21" gradientUnits="userSpaceOnUse">
<stop offset="0.0283515" stop-color="#382A9D"/>
<stop offset="1" stop-color="#2272D4"/>
</linearGradient>
<linearGradient id="paint24_linear_43_974" x1="203.3" y1="140.294" x2="203.3" y2="145.8" gradientUnits="userSpaceOnUse">
<stop stop-color="#275FC6"/>
<stop offset="1" stop-color="#382EA0"/>
</linearGradient>
<linearGradient id="paint25_linear_43_974" x1="608.855" y1="286.061" x2="593.118" y2="258.14" gradientUnits="userSpaceOnUse">
<stop stop-color="#21BCAC"/>
<stop offset="1" stop-color="#2FD5A4"/>
</linearGradient>
<linearGradient id="paint26_linear_43_974" x1="512.196" y1="250.426" x2="536.897" y2="266.334" gradientUnits="userSpaceOnUse">
<stop offset="0.177893" stop-color="#105B56"/>
<stop offset="0.879937" stop-color="#1D886D"/>
<stop offset="0.916444" stop-color="#0C694F"/>
</linearGradient>
<linearGradient id="paint27_linear_43_974" x1="571.799" y1="188.781" x2="517.59" y2="296.99" gradientUnits="userSpaceOnUse">
<stop stop-color="#2FBD7B"/>
<stop offset="1" stop-color="#106262"/>
</linearGradient>
<linearGradient id="paint28_linear_43_974" x1="201.387" y1="163.525" x2="302.902" y2="260.909" gradientUnits="userSpaceOnUse">
<stop stop-color="#C246FF"/>
<stop offset="1" stop-color="#6D31C7"/>
</linearGradient>
<linearGradient id="paint29_linear_43_974" x1="179.703" y1="164.9" x2="242.676" y2="271.576" gradientUnits="userSpaceOnUse">
<stop offset="0.00428104" stop-color="#8340FF"/>
<stop offset="1" stop-color="#8C36CE"/>
</linearGradient>
<linearGradient id="paint30_linear_43_974" x1="533.058" y1="290.924" x2="544.414" y2="295.742" gradientUnits="userSpaceOnUse">
<stop stop-color="#04B6FC"/>
<stop offset="1" stop-color="#02ACF4"/>
</linearGradient>
<linearGradient id="paint31_linear_43_974" x1="536.481" y1="288.943" x2="538.099" y2="296.444" gradientUnits="userSpaceOnUse">
<stop stop-color="#0EA4E8" stop-opacity="0.31"/>
<stop offset="1" stop-color="#18B6F7"/>
</linearGradient>
<linearGradient id="paint32_linear_43_974" x1="408.494" y1="310.883" x2="408.494" y2="341.854" gradientUnits="userSpaceOnUse">
<stop stop-color="#01B2FA"/>
<stop offset="1" stop-color="#115BD4"/>
</linearGradient>
<linearGradient id="paint33_linear_43_974" x1="401.758" y1="315.171" x2="409.337" y2="347.16" gradientUnits="userSpaceOnUse">
<stop stop-color="#0EA4E8"/>
<stop offset="1" stop-color="#36B3FF" stop-opacity="0"/>
</linearGradient>
<linearGradient id="paint34_linear_43_974" x1="495.556" y1="184.249" x2="467.678" y2="199.39" gradientUnits="userSpaceOnUse">
<stop stop-color="#05A1F5"/>
<stop offset="0.738475" stop-color="#0B86E7"/>
</linearGradient>
<linearGradient id="paint35_linear_43_974" x1="472.85" y1="188.781" x2="473.543" y2="203.495" gradientUnits="userSpaceOnUse">
<stop stop-color="#0EA4E8"/>
<stop offset="1" stop-color="#36B3FF" stop-opacity="0"/>
</linearGradient>
<linearGradient id="paint36_linear_43_974" x1="457.363" y1="198.007" x2="408.499" y2="303.994" gradientUnits="userSpaceOnUse">
<stop stop-color="#0793EC"/>
<stop offset="1" stop-color="#163FCA"/>
</linearGradient>
<linearGradient id="paint37_linear_43_974" x1="417.952" y1="222.359" x2="440.584" y2="314.396" gradientUnits="userSpaceOnUse">
<stop stop-color="#0EA4E8"/>
<stop offset="1" stop-color="#36B3FF" stop-opacity="0"/>
</linearGradient>
<linearGradient id="paint38_linear_43_974" x1="478.013" y1="209.015" x2="511.736" y2="351.479" gradientUnits="userSpaceOnUse">
<stop stop-color="#02BFF8"/>
<stop offset="1" stop-color="#1840C7"/>
</linearGradient>
<linearGradient id="paint39_linear_43_974" x1="454.953" y1="253.406" x2="487.82" y2="365.588" gradientUnits="userSpaceOnUse">
<stop stop-color="#00D6FF"/>
<stop offset="0.204538" stop-color="#1DD1FE" stop-opacity="0.795462"/>
<stop offset="1" stop-color="#36B3FF" stop-opacity="0"/>
</linearGradient>
<linearGradient id="paint40_linear_43_974" x1="462.281" y1="304.861" x2="510.228" y2="303.315" gradientUnits="userSpaceOnUse">
<stop stop-color="#03B7FC"/>
<stop offset="1" stop-color="#0F7AE6"/>
</linearGradient>
<linearGradient id="paint41_linear_43_974" x1="485.929" y1="340.127" x2="488.682" y2="360.774" gradientUnits="userSpaceOnUse">
<stop stop-color="#1737C5"/>
<stop offset="1" stop-color="#0998EE"/>
</linearGradient>
<linearGradient id="paint42_linear_43_974" x1="479.877" y1="344.477" x2="486.251" y2="362.874" gradientUnits="userSpaceOnUse">
<stop stop-color="#0EA4E8" stop-opacity="0.31"/>
<stop offset="1" stop-color="#18B6F7"/>
</linearGradient>
<linearGradient id="paint43_linear_43_974" x1="99.8553" y1="82.8568" x2="99.8553" y2="322.995" gradientUnits="userSpaceOnUse">
<stop stop-color="#23437A"/>
<stop offset="1" stop-color="#1B3664"/>
</linearGradient>
<linearGradient id="paint44_linear_43_974" x1="33.4261" y1="167.701" x2="58.6584" y2="173.062" gradientUnits="userSpaceOnUse">
<stop stop-color="#1CBBE7"/>
<stop offset="0.486993" stop-color="#1C4BA6"/>
<stop offset="1" stop-opacity="0"/>
</linearGradient>
<linearGradient id="paint45_linear_43_974" x1="30.2069" y1="339.611" x2="41.4754" y2="284.947" gradientUnits="userSpaceOnUse">
<stop stop-color="#672BA4"/>
<stop offset="0.754317" stop-color="#C05BFD"/>
</linearGradient>
<linearGradient id="paint46_linear_43_974" x1="52.9838" y1="306.525" x2="99.9759" y2="354.476" gradientUnits="userSpaceOnUse">
<stop stop-color="#A752DA"/>
<stop offset="1" stop-color="#672CA4"/>
</linearGradient>
<linearGradient id="paint47_linear_43_974" x1="15.1023" y1="310.841" x2="25.8913" y2="312.759" gradientUnits="userSpaceOnUse">
<stop stop-color="white" stop-opacity="0.22"/>
<stop offset="1" stop-opacity="0"/>
</linearGradient>
<linearGradient id="paint48_linear_43_974" x1="110.155" y1="207.085" x2="87.2816" y2="229.535" gradientUnits="userSpaceOnUse">
<stop stop-color="#21BCAC"/>
<stop offset="1" stop-color="#2FD5A4"/>
</linearGradient>
<linearGradient id="paint49_linear_43_974" x1="100.863" y1="309.69" x2="109.807" y2="281.705" gradientUnits="userSpaceOnUse">
<stop offset="0.177893" stop-color="#105B56"/>
<stop offset="0.879937" stop-color="#1D886D"/>
<stop offset="0.916444" stop-color="#0C694F"/>
</linearGradient>
<linearGradient id="paint50_linear_43_974" x1="25.8477" y1="268.145" x2="144.424" y2="292.38" gradientUnits="userSpaceOnUse">
<stop stop-color="#2FBD7B"/>
<stop offset="1" stop-color="#106262"/>
</linearGradient>
<linearGradient id="paint51_linear_43_974" x1="198.032" y1="377.044" x2="184.708" y2="406.179" gradientUnits="userSpaceOnUse">
<stop stop-color="#069FF4"/>
<stop offset="1" stop-color="#183DC7"/>
</linearGradient>
<linearGradient id="paint52_linear_43_974" x1="153.804" y1="377.763" x2="153.804" y2="419.334" gradientUnits="userSpaceOnUse">
<stop stop-color="#05A1F2"/>
<stop offset="1" stop-color="#1934C4"/>
</linearGradient>
<linearGradient id="paint53_linear_43_974" x1="144.211" y1="362.126" x2="138.17" y2="382.734" gradientUnits="userSpaceOnUse">
<stop offset="0.0447411" stop-color="#049DF1"/>
<stop offset="1" stop-color="#0E64D8"/>
</linearGradient>
<linearGradient id="paint54_linear_43_974" x1="134.966" y1="323.043" x2="114.713" y2="343.296" gradientUnits="userSpaceOnUse">
<stop stop-color="#03AFFC"/>
<stop offset="0.941639" stop-color="#134DD0"/>
</linearGradient>
<linearGradient id="paint55_linear_43_974" x1="106.897" y1="281.474" x2="106.897" y2="314.162" gradientUnits="userSpaceOnUse">
<stop stop-color="#00BDF7"/>
<stop offset="1" stop-color="#00BBFF"/>
</linearGradient>
<linearGradient id="paint56_linear_43_974" x1="263.94" y1="264.425" x2="162.678" y2="375.636" gradientUnits="userSpaceOnUse">
<stop stop-color="#0297C7"/>
<stop offset="1" stop-color="#1C20BA"/>
</linearGradient>
<linearGradient id="paint57_linear_43_974" x1="225.923" y1="291.068" x2="197.853" y2="317.005" gradientUnits="userSpaceOnUse">
<stop stop-color="#0681D0"/>
<stop offset="1" stop-color="#114DCA"/>
</linearGradient>
<linearGradient id="paint58_linear_43_974" x1="224.862" y1="285.028" x2="183.291" y2="299.595" gradientUnits="userSpaceOnUse">
<stop stop-color="#0F54C1"/>
<stop offset="1" stop-color="#1B25BC"/>
</linearGradient>
<linearGradient id="paint59_linear_43_974" x1="321.099" y1="227.961" x2="363.769" y2="306.764" gradientUnits="userSpaceOnUse">
<stop stop-color="#163DC8"/>
<stop offset="1" stop-color="#0185C6"/>
</linearGradient>
<linearGradient id="paint60_linear_43_974" x1="267.055" y1="231.362" x2="343.104" y2="365.223" gradientUnits="userSpaceOnUse">
<stop stop-color="#03A5F6"/>
<stop offset="0.965273" stop-color="#1733BD"/>
</linearGradient>
<linearGradient id="paint61_linear_43_974" x1="288.749" y1="250.605" x2="328.139" y2="352.685" gradientUnits="userSpaceOnUse">
<stop stop-color="#0EA4E8"/>
<stop offset="1" stop-color="#18B6F7"/>
</linearGradient>
<linearGradient id="paint62_linear_43_974" x1="290.29" y1="201.128" x2="373.91" y2="333.268" gradientUnits="userSpaceOnUse">
<stop stop-color="#01C3FA"/>
<stop offset="1" stop-color="#0C2879"/>
</linearGradient>
</defs>
</svg>
