<svg width="240" height="235" viewBox="0 0 240 235" fill="none" xmlns="http://www.w3.org/2000/svg">
<path d="M190.753 26.1498L162.964 1.34669C161.999 0.484719 160.688 0 159.322 0C157.955 0 156.644 0.484265 155.678 1.34669L99.0645 51.8739L77.8898 32.9772C76.9236 32.1156 75.6133 31.6309 74.2461 31.6309C72.8799 31.6309 71.5691 32.1157 70.6034 32.9776L42.8152 57.7817C40.805 59.5764 40.805 62.4847 42.8157 64.2789L95.4213 111.229C96.387 112.092 97.6973 112.576 99.0645 112.576C100.431 112.576 101.742 112.092 102.707 111.229L190.753 32.6466C192.764 30.8528 192.764 27.9441 190.753 26.1498Z" fill="#54C495"/>
<line x1="238.971" y1="233.029" x2="1.02924" y2="233.029" stroke="#6C016B" stroke-width="2.05846" stroke-linecap="round"/>
<path d="M77.3172 231.371C75.7368 216.652 63.2466 100.198 63.2432 96.1794C63.2398 92.2047 63.9789 88.3808 64.0876 87.8402C64.0967 87.7951 64.1035 87.7539 64.1095 87.7083C64.7005 83.1731 67.5304 74.6084 74.2216 76.1105C80.9459 77.62 84.5166 82.117 84.3424 87.7751C84.1682 93.4332 81.772 94.2962 81.4263 100.297C81.0805 106.299 86.3982 132.887 89.4886 136.492C92.5789 140.097 108.875 140.612 111.445 136.492C114.016 132.372 120.676 98.0701 120.709 94.122C120.741 90.174 120.251 79.8836 122.252 77.9964C123.739 76.1666 127.947 72.9188 132.888 74.5656C137.828 76.2124 140.95 80.0559 140.95 84.3433C140.95 88.4153 133.368 144.48 132.606 150.103C132.563 150.425 132.617 150.714 132.752 151.009L169.169 230.465C169.69 231.602 168.86 232.896 167.61 232.896H135.337C134.678 232.896 134.078 232.519 133.792 231.926L108.53 179.609C107.738 177.967 105.27 178.532 105.27 180.355V231.18C105.27 232.128 104.502 232.896 103.555 232.896H79.0217C78.1453 232.896 77.4107 232.243 77.3172 231.371Z" fill="white" stroke="#6C016B" stroke-width="1.37231"/>
<path d="M132.596 84.4608C132.201 81.3507 130.203 77.3153 128.928 75.2956C128.712 74.9539 128.914 74.4869 129.314 74.4308C129.501 74.4047 129.687 74.4781 129.802 74.6274C131.69 77.0947 132.869 80.3368 133.241 81.8456C133.401 82.8842 133.682 85.0654 133.529 85.4808C133.305 86.0862 132.677 85.1012 132.596 84.4608Z" fill="#6C016B" stroke="#5C0095" stroke-opacity="0.08" stroke-width="1.37231"/>
<path d="M71.425 86.8621C71.8195 83.7519 73.8177 79.7166 75.0929 77.6969C75.3087 77.3551 75.1063 76.8882 74.7061 76.8321C74.5199 76.806 74.3332 76.8794 74.2189 77.0287C72.3305 79.496 71.1518 82.7381 70.7798 84.2469C70.6197 85.2855 70.338 87.4667 70.4917 87.8821C70.7156 88.4875 71.3437 87.5025 71.425 86.8621Z" fill="#6C016B" stroke="#5C0095" stroke-opacity="0.08" stroke-width="1.37231"/>
<path d="M125.768 85.6738C125.357 83.5089 123.654 80.7869 122.49 79.3111C122.261 79.0201 122.435 78.5669 122.804 78.5266C122.936 78.5121 123.069 78.5573 123.163 78.6523C124.94 80.4497 126.049 82.8245 126.398 83.9269C126.547 84.6823 126.81 86.2686 126.667 86.5707C126.426 87.0774 125.873 86.2248 125.768 85.6738Z" fill="#6C016B" stroke="#5C0095" stroke-opacity="0.08" stroke-width="1.71538"/>
<path d="M77.559 87.398C77.9701 85.2332 79.6731 82.5111 80.8369 81.0354C81.0664 80.7444 80.892 80.2911 80.5235 80.2509C80.3907 80.2364 80.2579 80.2815 80.164 80.3765C78.3871 82.1739 77.2783 84.5487 76.9295 85.6511C76.7801 86.4065 76.5172 87.9928 76.6606 88.295C76.9011 88.8016 77.4544 87.949 77.559 87.398Z" fill="#6C016B" stroke="#5C0095" stroke-opacity="0.08" stroke-width="1.71538"/>
<path d="M91.485 122.104C91.6938 118.51 94.7765 115.766 98.3705 115.975L103.57 116.277C107.164 116.486 109.908 119.568 109.699 123.162L109.328 129.56C109.07 134.006 105.257 137.4 100.812 137.142L98.6946 137.019C94.2494 136.761 90.8552 132.948 91.1134 128.502L91.485 122.104Z" stroke="#6C016B" stroke-width="1.37231"/>
<path d="M105.609 127.311C102.743 129.947 97.8971 129.885 95.0275 127.401C93.9023 126.427 92.766 127.658 93.8949 128.635C97.7133 131.941 103.314 131.74 107.114 128.245C108.209 127.238 106.704 126.304 105.609 127.311Z" fill="#6C016B"/>
<rect x="102.352" y="120.701" width="2.40154" height="3.77385" rx="1.20077" fill="#6C016B"/>
<rect x="96.1787" y="121.113" width="2.05846" height="3.43077" rx="1.02923" fill="#6C016B"/>
</svg>
